<mxfile host="app.diagrams.net" modified="2024-03-09T04:06:29.270Z" agent="Mozilla/5.0 (X11; Linux x86_64) AppleWebKit/537.36 (KHTML, like Gecko) Chrome/113.0.0.0 Safari/537.36" etag="ctjc_4bpTFEzORPFv5KP" version="24.0.2" type="device">
  <diagram name="Page-1" id="8vha8mKrJqNa57Fq7SQc">
    <mxGraphModel dx="454" dy="316" grid="1" gridSize="4" guides="1" tooltips="1" connect="1" arrows="1" fold="1" page="1" pageScale="1" pageWidth="600" pageHeight="800" math="0" shadow="0">
      <root>
        <mxCell id="0" />
        <mxCell id="1" parent="0" />
        <mxCell id="3yhlnZ_dRqESJsOAwMpr-165" value="J" style="rounded=0;whiteSpace=wrap;html=1;" parent="1" vertex="1">
          <mxGeometry x="392" y="328" width="32" height="16" as="geometry" />
        </mxCell>
        <mxCell id="3yhlnZ_dRqESJsOAwMpr-133" value="POT" style="rounded=0;whiteSpace=wrap;html=1;" parent="1" vertex="1">
          <mxGeometry x="248" y="344" width="48" height="16" as="geometry" />
        </mxCell>
        <mxCell id="3yhlnZ_dRqESJsOAwMpr-1" value="7" style="rounded=0;whiteSpace=wrap;html=1;" parent="1" vertex="1">
          <mxGeometry x="216" y="184" width="80" height="112" as="geometry" />
        </mxCell>
        <mxCell id="3yhlnZ_dRqESJsOAwMpr-2" value="" style="endArrow=none;html=1;rounded=0;" parent="1" edge="1">
          <mxGeometry width="50" height="50" relative="1" as="geometry">
            <mxPoint x="224" y="200" as="sourcePoint" />
            <mxPoint x="224" y="192" as="targetPoint" />
          </mxGeometry>
        </mxCell>
        <mxCell id="3yhlnZ_dRqESJsOAwMpr-3" value="" style="endArrow=none;html=1;rounded=0;" parent="1" edge="1">
          <mxGeometry width="50" height="50" relative="1" as="geometry">
            <mxPoint x="240" y="200" as="sourcePoint" />
            <mxPoint x="240" y="192" as="targetPoint" />
          </mxGeometry>
        </mxCell>
        <mxCell id="3yhlnZ_dRqESJsOAwMpr-4" value="" style="endArrow=none;html=1;rounded=0;" parent="1" edge="1">
          <mxGeometry width="50" height="50" relative="1" as="geometry">
            <mxPoint x="256" y="200" as="sourcePoint" />
            <mxPoint x="256" y="192" as="targetPoint" />
          </mxGeometry>
        </mxCell>
        <mxCell id="3yhlnZ_dRqESJsOAwMpr-5" value="" style="endArrow=none;html=1;rounded=0;" parent="1" edge="1">
          <mxGeometry width="50" height="50" relative="1" as="geometry">
            <mxPoint x="272" y="200" as="sourcePoint" />
            <mxPoint x="272" y="192" as="targetPoint" />
          </mxGeometry>
        </mxCell>
        <mxCell id="3yhlnZ_dRqESJsOAwMpr-6" value="" style="endArrow=none;html=1;rounded=0;" parent="1" edge="1">
          <mxGeometry width="50" height="50" relative="1" as="geometry">
            <mxPoint x="288" y="200" as="sourcePoint" />
            <mxPoint x="288" y="192" as="targetPoint" />
          </mxGeometry>
        </mxCell>
        <mxCell id="3yhlnZ_dRqESJsOAwMpr-9" value="" style="endArrow=none;html=1;rounded=0;" parent="1" edge="1">
          <mxGeometry width="50" height="50" relative="1" as="geometry">
            <mxPoint x="224" y="288" as="sourcePoint" />
            <mxPoint x="224" y="280" as="targetPoint" />
          </mxGeometry>
        </mxCell>
        <mxCell id="3yhlnZ_dRqESJsOAwMpr-10" value="" style="endArrow=none;html=1;rounded=0;" parent="1" edge="1">
          <mxGeometry width="50" height="50" relative="1" as="geometry">
            <mxPoint x="240" y="288" as="sourcePoint" />
            <mxPoint x="240" y="280" as="targetPoint" />
          </mxGeometry>
        </mxCell>
        <mxCell id="3yhlnZ_dRqESJsOAwMpr-11" value="" style="endArrow=none;html=1;rounded=0;" parent="1" edge="1">
          <mxGeometry width="50" height="50" relative="1" as="geometry">
            <mxPoint x="256" y="288" as="sourcePoint" />
            <mxPoint x="256" y="280" as="targetPoint" />
          </mxGeometry>
        </mxCell>
        <mxCell id="3yhlnZ_dRqESJsOAwMpr-12" value="" style="endArrow=none;html=1;rounded=0;" parent="1" edge="1">
          <mxGeometry width="50" height="50" relative="1" as="geometry">
            <mxPoint x="272" y="288" as="sourcePoint" />
            <mxPoint x="272" y="280" as="targetPoint" />
          </mxGeometry>
        </mxCell>
        <mxCell id="3yhlnZ_dRqESJsOAwMpr-13" value="" style="endArrow=none;html=1;rounded=0;" parent="1" edge="1">
          <mxGeometry width="50" height="50" relative="1" as="geometry">
            <mxPoint x="288" y="288" as="sourcePoint" />
            <mxPoint x="288" y="280" as="targetPoint" />
          </mxGeometry>
        </mxCell>
        <mxCell id="3yhlnZ_dRqESJsOAwMpr-14" value="" style="ellipse;whiteSpace=wrap;html=1;aspect=fixed;" parent="1" vertex="1">
          <mxGeometry x="314" y="218" width="12" height="12" as="geometry" />
        </mxCell>
        <mxCell id="3yhlnZ_dRqESJsOAwMpr-15" value="" style="ellipse;whiteSpace=wrap;html=1;aspect=fixed;" parent="1" vertex="1">
          <mxGeometry x="314" y="234" width="12" height="12" as="geometry" />
        </mxCell>
        <mxCell id="3yhlnZ_dRqESJsOAwMpr-16" value="" style="ellipse;whiteSpace=wrap;html=1;aspect=fixed;" parent="1" vertex="1">
          <mxGeometry x="314" y="170" width="12" height="12" as="geometry" />
        </mxCell>
        <mxCell id="3yhlnZ_dRqESJsOAwMpr-17" value="" style="ellipse;whiteSpace=wrap;html=1;aspect=fixed;" parent="1" vertex="1">
          <mxGeometry x="314" y="202" width="12" height="12" as="geometry" />
        </mxCell>
        <mxCell id="3yhlnZ_dRqESJsOAwMpr-22" value="" style="ellipse;whiteSpace=wrap;html=1;aspect=fixed;" parent="1" vertex="1">
          <mxGeometry x="314" y="298" width="12" height="12" as="geometry" />
        </mxCell>
        <mxCell id="3yhlnZ_dRqESJsOAwMpr-23" value="" style="ellipse;whiteSpace=wrap;html=1;aspect=fixed;" parent="1" vertex="1">
          <mxGeometry x="314" y="282" width="12" height="12" as="geometry" />
        </mxCell>
        <mxCell id="3yhlnZ_dRqESJsOAwMpr-35" value="" style="endArrow=none;dashed=1;html=1;dashPattern=1 1;strokeWidth=1;rounded=0;" parent="1" edge="1">
          <mxGeometry width="50" height="50" relative="1" as="geometry">
            <mxPoint x="272" y="192" as="sourcePoint" />
            <mxPoint x="304" y="176" as="targetPoint" />
            <Array as="points">
              <mxPoint x="272" y="176" />
            </Array>
          </mxGeometry>
        </mxCell>
        <mxCell id="3yhlnZ_dRqESJsOAwMpr-36" value="" style="endArrow=none;dashed=1;html=1;dashPattern=1 1;strokeWidth=1;rounded=0;" parent="1" edge="1">
          <mxGeometry width="50" height="50" relative="1" as="geometry">
            <mxPoint x="288" y="192" as="sourcePoint" />
            <mxPoint x="304" y="208" as="targetPoint" />
            <Array as="points">
              <mxPoint x="288" y="208" />
            </Array>
          </mxGeometry>
        </mxCell>
        <mxCell id="3yhlnZ_dRqESJsOAwMpr-37" value="" style="endArrow=none;dashed=1;html=1;dashPattern=1 1;strokeWidth=1;rounded=0;entryX=0.5;entryY=1;entryDx=0;entryDy=0;" parent="1" edge="1">
          <mxGeometry width="50" height="50" relative="1" as="geometry">
            <mxPoint x="304" y="256" as="sourcePoint" />
            <mxPoint x="224" y="288" as="targetPoint" />
            <Array as="points">
              <mxPoint x="224" y="256" />
            </Array>
          </mxGeometry>
        </mxCell>
        <mxCell id="3yhlnZ_dRqESJsOAwMpr-38" value="" style="endArrow=none;dashed=1;html=1;dashPattern=1 1;strokeWidth=1;rounded=0;entryX=0.5;entryY=1;entryDx=0;entryDy=0;" parent="1" edge="1">
          <mxGeometry width="50" height="50" relative="1" as="geometry">
            <mxPoint x="304" y="272" as="sourcePoint" />
            <mxPoint x="240" y="288" as="targetPoint" />
            <Array as="points">
              <mxPoint x="240" y="272" />
            </Array>
          </mxGeometry>
        </mxCell>
        <mxCell id="3yhlnZ_dRqESJsOAwMpr-39" value="" style="endArrow=none;dashed=1;html=1;dashPattern=1 1;strokeWidth=1;rounded=0;entryX=0.5;entryY=1;entryDx=0;entryDy=0;" parent="1" edge="1">
          <mxGeometry width="50" height="50" relative="1" as="geometry">
            <mxPoint x="304" y="304" as="sourcePoint" />
            <mxPoint x="272" y="288" as="targetPoint" />
            <Array as="points">
              <mxPoint x="272" y="304" />
            </Array>
          </mxGeometry>
        </mxCell>
        <mxCell id="3yhlnZ_dRqESJsOAwMpr-40" value="" style="endArrow=none;dashed=1;html=1;dashPattern=1 1;strokeWidth=1;rounded=0;entryX=0.5;entryY=1;entryDx=0;entryDy=0;" parent="1" edge="1">
          <mxGeometry width="50" height="50" relative="1" as="geometry">
            <mxPoint x="304" y="288" as="sourcePoint" />
            <mxPoint x="288" y="288" as="targetPoint" />
          </mxGeometry>
        </mxCell>
        <mxCell id="3yhlnZ_dRqESJsOAwMpr-41" value="74HC595" style="rounded=0;whiteSpace=wrap;html=1;rotation=90;" parent="1" vertex="1">
          <mxGeometry x="294.13" y="232.01" width="132" height="64.02" as="geometry" />
        </mxCell>
        <mxCell id="3yhlnZ_dRqESJsOAwMpr-42" value="" style="endArrow=none;html=1;rounded=0;" parent="1" edge="1">
          <mxGeometry width="50" height="50" relative="1" as="geometry">
            <mxPoint x="336" y="320" as="sourcePoint" />
            <mxPoint x="344" y="320" as="targetPoint" />
          </mxGeometry>
        </mxCell>
        <mxCell id="3yhlnZ_dRqESJsOAwMpr-43" value="" style="endArrow=none;html=1;rounded=0;" parent="1" edge="1">
          <mxGeometry width="50" height="50" relative="1" as="geometry">
            <mxPoint x="336" y="304" as="sourcePoint" />
            <mxPoint x="344" y="304" as="targetPoint" />
          </mxGeometry>
        </mxCell>
        <mxCell id="3yhlnZ_dRqESJsOAwMpr-44" value="" style="endArrow=none;html=1;rounded=0;" parent="1" edge="1">
          <mxGeometry width="50" height="50" relative="1" as="geometry">
            <mxPoint x="336" y="288" as="sourcePoint" />
            <mxPoint x="344" y="288" as="targetPoint" />
          </mxGeometry>
        </mxCell>
        <mxCell id="3yhlnZ_dRqESJsOAwMpr-45" value="" style="endArrow=none;html=1;rounded=0;" parent="1" edge="1">
          <mxGeometry width="50" height="50" relative="1" as="geometry">
            <mxPoint x="336" y="272" as="sourcePoint" />
            <mxPoint x="344" y="272" as="targetPoint" />
          </mxGeometry>
        </mxCell>
        <mxCell id="3yhlnZ_dRqESJsOAwMpr-46" value="" style="endArrow=none;html=1;rounded=0;" parent="1" edge="1">
          <mxGeometry width="50" height="50" relative="1" as="geometry">
            <mxPoint x="336" y="256" as="sourcePoint" />
            <mxPoint x="344" y="256" as="targetPoint" />
          </mxGeometry>
        </mxCell>
        <mxCell id="3yhlnZ_dRqESJsOAwMpr-47" value="" style="endArrow=none;html=1;rounded=0;" parent="1" edge="1">
          <mxGeometry width="50" height="50" relative="1" as="geometry">
            <mxPoint x="336" y="240" as="sourcePoint" />
            <mxPoint x="344" y="240" as="targetPoint" />
          </mxGeometry>
        </mxCell>
        <mxCell id="3yhlnZ_dRqESJsOAwMpr-48" value="" style="endArrow=none;html=1;rounded=0;" parent="1" edge="1">
          <mxGeometry width="50" height="50" relative="1" as="geometry">
            <mxPoint x="336" y="224" as="sourcePoint" />
            <mxPoint x="344" y="224" as="targetPoint" />
          </mxGeometry>
        </mxCell>
        <mxCell id="3yhlnZ_dRqESJsOAwMpr-49" value="" style="endArrow=none;html=1;rounded=0;" parent="1" edge="1">
          <mxGeometry width="50" height="50" relative="1" as="geometry">
            <mxPoint x="336" y="208" as="sourcePoint" />
            <mxPoint x="344" y="208" as="targetPoint" />
          </mxGeometry>
        </mxCell>
        <mxCell id="3yhlnZ_dRqESJsOAwMpr-50" value="" style="endArrow=none;html=1;rounded=0;entryX=0.926;entryY=1.007;entryDx=0;entryDy=0;entryPerimeter=0;" parent="1" edge="1">
          <mxGeometry width="50" height="50" relative="1" as="geometry">
            <mxPoint x="376" y="320" as="sourcePoint" />
            <mxPoint x="384" y="320" as="targetPoint" />
          </mxGeometry>
        </mxCell>
        <mxCell id="3yhlnZ_dRqESJsOAwMpr-51" value="" style="endArrow=none;html=1;rounded=0;entryX=0.926;entryY=1.007;entryDx=0;entryDy=0;entryPerimeter=0;" parent="1" edge="1">
          <mxGeometry width="50" height="50" relative="1" as="geometry">
            <mxPoint x="376" y="304" as="sourcePoint" />
            <mxPoint x="384" y="304" as="targetPoint" />
          </mxGeometry>
        </mxCell>
        <mxCell id="3yhlnZ_dRqESJsOAwMpr-58" value="" style="endArrow=none;dashed=1;html=1;dashPattern=1 1;strokeWidth=1;rounded=0;entryX=1;entryY=0.5;entryDx=0;entryDy=0;" parent="1" target="3yhlnZ_dRqESJsOAwMpr-22" edge="1">
          <mxGeometry width="50" height="50" relative="1" as="geometry">
            <mxPoint x="336" y="304" as="sourcePoint" />
            <mxPoint x="312" y="328" as="targetPoint" />
          </mxGeometry>
        </mxCell>
        <mxCell id="3yhlnZ_dRqESJsOAwMpr-59" value="" style="endArrow=none;dashed=1;html=1;dashPattern=1 1;strokeWidth=1;rounded=0;entryX=1;entryY=0.5;entryDx=0;entryDy=0;" parent="1" target="3yhlnZ_dRqESJsOAwMpr-23" edge="1">
          <mxGeometry width="50" height="50" relative="1" as="geometry">
            <mxPoint x="336" y="288" as="sourcePoint" />
            <mxPoint x="300" y="316" as="targetPoint" />
          </mxGeometry>
        </mxCell>
        <mxCell id="3yhlnZ_dRqESJsOAwMpr-60" value="" style="endArrow=none;dashed=1;html=1;dashPattern=1 1;strokeWidth=1;rounded=0;entryX=1;entryY=0.5;entryDx=0;entryDy=0;" parent="1" target="3yhlnZ_dRqESJsOAwMpr-147" edge="1">
          <mxGeometry width="50" height="50" relative="1" as="geometry">
            <mxPoint x="336" y="272" as="sourcePoint" />
            <mxPoint x="228" y="344" as="targetPoint" />
          </mxGeometry>
        </mxCell>
        <mxCell id="3yhlnZ_dRqESJsOAwMpr-61" value="" style="endArrow=none;dashed=1;html=1;dashPattern=1 1;strokeWidth=1;rounded=0;entryX=1;entryY=0.5;entryDx=0;entryDy=0;" parent="1" target="3yhlnZ_dRqESJsOAwMpr-145" edge="1">
          <mxGeometry width="50" height="50" relative="1" as="geometry">
            <mxPoint x="336" y="256" as="sourcePoint" />
            <mxPoint x="240" y="348" as="targetPoint" />
          </mxGeometry>
        </mxCell>
        <mxCell id="3yhlnZ_dRqESJsOAwMpr-62" value="" style="endArrow=none;dashed=1;html=1;dashPattern=1 1;strokeWidth=1;rounded=0;entryX=1;entryY=0.5;entryDx=0;entryDy=0;" parent="1" target="3yhlnZ_dRqESJsOAwMpr-15" edge="1">
          <mxGeometry width="50" height="50" relative="1" as="geometry">
            <mxPoint x="336" y="240" as="sourcePoint" />
            <mxPoint x="312" y="120" as="targetPoint" />
          </mxGeometry>
        </mxCell>
        <mxCell id="3yhlnZ_dRqESJsOAwMpr-63" value="" style="endArrow=none;dashed=1;html=1;dashPattern=1 1;strokeWidth=1;rounded=0;" parent="1" edge="1">
          <mxGeometry width="50" height="50" relative="1" as="geometry">
            <mxPoint x="304" y="224" as="sourcePoint" />
            <mxPoint x="240" y="192" as="targetPoint" />
            <Array as="points">
              <mxPoint x="240" y="224" />
            </Array>
          </mxGeometry>
        </mxCell>
        <mxCell id="3yhlnZ_dRqESJsOAwMpr-64" value="" style="endArrow=none;dashed=1;html=1;dashPattern=1 1;strokeWidth=1;rounded=0;" parent="1" target="3yhlnZ_dRqESJsOAwMpr-17" edge="1">
          <mxGeometry width="50" height="50" relative="1" as="geometry">
            <mxPoint x="336" y="208" as="sourcePoint" />
            <mxPoint x="336" y="192" as="targetPoint" />
          </mxGeometry>
        </mxCell>
        <mxCell id="3yhlnZ_dRqESJsOAwMpr-65" value="" style="endArrow=none;dashed=1;html=1;dashPattern=1 1;strokeWidth=1;rounded=0;entryX=1;entryY=0.5;entryDx=0;entryDy=0;" parent="1" target="3yhlnZ_dRqESJsOAwMpr-16" edge="1">
          <mxGeometry width="50" height="50" relative="1" as="geometry">
            <mxPoint x="384" y="224" as="sourcePoint" />
            <mxPoint x="272" y="160" as="targetPoint" />
            <Array as="points">
              <mxPoint x="368" y="224" />
              <mxPoint x="368" y="176" />
            </Array>
          </mxGeometry>
        </mxCell>
        <mxCell id="3yhlnZ_dRqESJsOAwMpr-66" value="" style="endArrow=none;html=1;rounded=0;entryX=0.926;entryY=1.007;entryDx=0;entryDy=0;entryPerimeter=0;" parent="1" edge="1">
          <mxGeometry width="50" height="50" relative="1" as="geometry">
            <mxPoint x="376" y="288" as="sourcePoint" />
            <mxPoint x="384" y="288" as="targetPoint" />
          </mxGeometry>
        </mxCell>
        <mxCell id="3yhlnZ_dRqESJsOAwMpr-67" value="" style="endArrow=none;html=1;rounded=0;entryX=0.926;entryY=1.007;entryDx=0;entryDy=0;entryPerimeter=0;" parent="1" edge="1">
          <mxGeometry width="50" height="50" relative="1" as="geometry">
            <mxPoint x="376" y="272" as="sourcePoint" />
            <mxPoint x="384" y="272" as="targetPoint" />
          </mxGeometry>
        </mxCell>
        <mxCell id="3yhlnZ_dRqESJsOAwMpr-70" value="" style="endArrow=none;html=1;rounded=0;entryX=0.926;entryY=1.007;entryDx=0;entryDy=0;entryPerimeter=0;" parent="1" edge="1">
          <mxGeometry width="50" height="50" relative="1" as="geometry">
            <mxPoint x="376" y="256" as="sourcePoint" />
            <mxPoint x="384" y="256" as="targetPoint" />
          </mxGeometry>
        </mxCell>
        <mxCell id="3yhlnZ_dRqESJsOAwMpr-71" value="" style="endArrow=none;html=1;rounded=0;entryX=0.926;entryY=1.007;entryDx=0;entryDy=0;entryPerimeter=0;" parent="1" edge="1">
          <mxGeometry width="50" height="50" relative="1" as="geometry">
            <mxPoint x="376" y="240" as="sourcePoint" />
            <mxPoint x="384" y="240" as="targetPoint" />
          </mxGeometry>
        </mxCell>
        <mxCell id="3yhlnZ_dRqESJsOAwMpr-72" value="" style="endArrow=none;html=1;rounded=0;entryX=0.926;entryY=1.007;entryDx=0;entryDy=0;entryPerimeter=0;" parent="1" edge="1">
          <mxGeometry width="50" height="50" relative="1" as="geometry">
            <mxPoint x="376" y="224" as="sourcePoint" />
            <mxPoint x="384" y="224" as="targetPoint" />
          </mxGeometry>
        </mxCell>
        <mxCell id="3yhlnZ_dRqESJsOAwMpr-73" value="" style="endArrow=none;html=1;rounded=0;entryX=0.926;entryY=1.007;entryDx=0;entryDy=0;entryPerimeter=0;" parent="1" edge="1">
          <mxGeometry width="50" height="50" relative="1" as="geometry">
            <mxPoint x="376" y="208" as="sourcePoint" />
            <mxPoint x="384" y="208" as="targetPoint" />
          </mxGeometry>
        </mxCell>
        <mxCell id="3yhlnZ_dRqESJsOAwMpr-84" value="" style="group" parent="1" vertex="1" connectable="0">
          <mxGeometry x="504" y="81" width="16" height="159" as="geometry" />
        </mxCell>
        <mxCell id="3yhlnZ_dRqESJsOAwMpr-74" value="NC" style="rounded=0;whiteSpace=wrap;html=1;fontSize=4;" parent="3yhlnZ_dRqESJsOAwMpr-84" vertex="1">
          <mxGeometry width="16" height="16" as="geometry" />
        </mxCell>
        <mxCell id="3yhlnZ_dRqESJsOAwMpr-75" value="NC" style="rounded=0;whiteSpace=wrap;html=1;fontSize=4;" parent="3yhlnZ_dRqESJsOAwMpr-84" vertex="1">
          <mxGeometry y="16" width="16" height="16" as="geometry" />
        </mxCell>
        <mxCell id="3yhlnZ_dRqESJsOAwMpr-76" value="AREF" style="rounded=0;whiteSpace=wrap;html=1;fontSize=4;" parent="3yhlnZ_dRqESJsOAwMpr-84" vertex="1">
          <mxGeometry y="32" width="16" height="16" as="geometry" />
        </mxCell>
        <mxCell id="3yhlnZ_dRqESJsOAwMpr-77" value="GND" style="rounded=0;whiteSpace=wrap;html=1;fontSize=4;" parent="3yhlnZ_dRqESJsOAwMpr-84" vertex="1">
          <mxGeometry y="48" width="16" height="16" as="geometry" />
        </mxCell>
        <mxCell id="3yhlnZ_dRqESJsOAwMpr-78" value="13" style="rounded=0;whiteSpace=wrap;html=1;fontSize=4;" parent="3yhlnZ_dRqESJsOAwMpr-84" vertex="1">
          <mxGeometry y="64" width="16" height="16" as="geometry" />
        </mxCell>
        <mxCell id="3yhlnZ_dRqESJsOAwMpr-79" value="12" style="rounded=0;whiteSpace=wrap;html=1;fontSize=4;" parent="3yhlnZ_dRqESJsOAwMpr-84" vertex="1">
          <mxGeometry y="80" width="16" height="16" as="geometry" />
        </mxCell>
        <mxCell id="3yhlnZ_dRqESJsOAwMpr-80" value="11" style="rounded=0;whiteSpace=wrap;html=1;fontSize=4;" parent="3yhlnZ_dRqESJsOAwMpr-84" vertex="1">
          <mxGeometry y="96" width="16" height="16" as="geometry" />
        </mxCell>
        <mxCell id="3yhlnZ_dRqESJsOAwMpr-81" value="10" style="rounded=0;whiteSpace=wrap;html=1;fontSize=4;" parent="3yhlnZ_dRqESJsOAwMpr-84" vertex="1">
          <mxGeometry y="112" width="16" height="16" as="geometry" />
        </mxCell>
        <mxCell id="3yhlnZ_dRqESJsOAwMpr-82" value="9" style="rounded=0;whiteSpace=wrap;html=1;fontSize=4;" parent="3yhlnZ_dRqESJsOAwMpr-84" vertex="1">
          <mxGeometry y="127" width="16" height="16" as="geometry" />
        </mxCell>
        <mxCell id="3yhlnZ_dRqESJsOAwMpr-83" value="8" style="rounded=0;whiteSpace=wrap;html=1;fontSize=4;" parent="3yhlnZ_dRqESJsOAwMpr-84" vertex="1">
          <mxGeometry y="143" width="16" height="16" as="geometry" />
        </mxCell>
        <mxCell id="3yhlnZ_dRqESJsOAwMpr-96" value="AVOID" style="text;html=1;align=center;verticalAlign=middle;whiteSpace=wrap;rounded=0;" parent="1" vertex="1">
          <mxGeometry x="528" y="68" width="60" height="30" as="geometry" />
        </mxCell>
        <mxCell id="3yhlnZ_dRqESJsOAwMpr-97" value="" style="group" parent="1" vertex="1" connectable="0">
          <mxGeometry x="504" y="248" width="16" height="128" as="geometry" />
        </mxCell>
        <mxCell id="3yhlnZ_dRqESJsOAwMpr-86" value="7" style="rounded=0;whiteSpace=wrap;html=1;fontSize=4;" parent="3yhlnZ_dRqESJsOAwMpr-97" vertex="1">
          <mxGeometry width="16" height="16" as="geometry" />
        </mxCell>
        <mxCell id="3yhlnZ_dRqESJsOAwMpr-87" value="6" style="rounded=0;whiteSpace=wrap;html=1;fontSize=4;" parent="3yhlnZ_dRqESJsOAwMpr-97" vertex="1">
          <mxGeometry y="16" width="16" height="16" as="geometry" />
        </mxCell>
        <mxCell id="3yhlnZ_dRqESJsOAwMpr-88" value="5" style="rounded=0;whiteSpace=wrap;html=1;fontSize=4;" parent="3yhlnZ_dRqESJsOAwMpr-97" vertex="1">
          <mxGeometry y="32" width="16" height="16" as="geometry" />
        </mxCell>
        <mxCell id="3yhlnZ_dRqESJsOAwMpr-89" value="4" style="rounded=0;whiteSpace=wrap;html=1;fontSize=4;" parent="3yhlnZ_dRqESJsOAwMpr-97" vertex="1">
          <mxGeometry y="48" width="16" height="16" as="geometry" />
        </mxCell>
        <mxCell id="3yhlnZ_dRqESJsOAwMpr-90" value="3" style="rounded=0;whiteSpace=wrap;html=1;fontSize=4;" parent="3yhlnZ_dRqESJsOAwMpr-97" vertex="1">
          <mxGeometry y="64" width="16" height="16" as="geometry" />
        </mxCell>
        <mxCell id="3yhlnZ_dRqESJsOAwMpr-91" value="2" style="rounded=0;whiteSpace=wrap;html=1;fontSize=4;" parent="3yhlnZ_dRqESJsOAwMpr-97" vertex="1">
          <mxGeometry y="80" width="16" height="16" as="geometry" />
        </mxCell>
        <mxCell id="3yhlnZ_dRqESJsOAwMpr-92" value="1" style="rounded=0;whiteSpace=wrap;html=1;fontSize=4;" parent="3yhlnZ_dRqESJsOAwMpr-97" vertex="1">
          <mxGeometry y="96" width="16" height="16" as="geometry" />
        </mxCell>
        <mxCell id="3yhlnZ_dRqESJsOAwMpr-93" value="0" style="rounded=0;whiteSpace=wrap;html=1;fontSize=4;" parent="3yhlnZ_dRqESJsOAwMpr-97" vertex="1">
          <mxGeometry y="112" width="16" height="16" as="geometry" />
        </mxCell>
        <mxCell id="3yhlnZ_dRqESJsOAwMpr-117" value="" style="endArrow=none;html=1;rounded=0;exitX=0;exitY=0.5;exitDx=0;exitDy=0;" parent="1" source="3yhlnZ_dRqESJsOAwMpr-113" edge="1">
          <mxGeometry width="50" height="50" relative="1" as="geometry">
            <mxPoint x="200" y="176" as="sourcePoint" />
            <mxPoint x="384" y="192" as="targetPoint" />
            <Array as="points">
              <mxPoint x="184" y="208" />
              <mxPoint x="184" y="96" />
              <mxPoint x="384" y="96" />
            </Array>
          </mxGeometry>
        </mxCell>
        <mxCell id="3yhlnZ_dRqESJsOAwMpr-118" value="" style="group" parent="1" vertex="1" connectable="0">
          <mxGeometry x="200" y="136" width="16" height="128" as="geometry" />
        </mxCell>
        <mxCell id="3yhlnZ_dRqESJsOAwMpr-109" value="NC" style="rounded=0;whiteSpace=wrap;html=1;fontSize=4;" parent="3yhlnZ_dRqESJsOAwMpr-118" vertex="1">
          <mxGeometry width="16" height="16" as="geometry" />
        </mxCell>
        <mxCell id="3yhlnZ_dRqESJsOAwMpr-110" value="IOREF" style="rounded=0;whiteSpace=wrap;html=1;fontSize=4;" parent="3yhlnZ_dRqESJsOAwMpr-118" vertex="1">
          <mxGeometry y="16" width="16" height="16" as="geometry" />
        </mxCell>
        <mxCell id="3yhlnZ_dRqESJsOAwMpr-111" value="RESET" style="rounded=0;whiteSpace=wrap;html=1;fontSize=4;" parent="3yhlnZ_dRqESJsOAwMpr-118" vertex="1">
          <mxGeometry y="32" width="16" height="16" as="geometry" />
        </mxCell>
        <mxCell id="3yhlnZ_dRqESJsOAwMpr-112" value="3.3V" style="rounded=0;whiteSpace=wrap;html=1;fontSize=4;" parent="3yhlnZ_dRqESJsOAwMpr-118" vertex="1">
          <mxGeometry y="48" width="16" height="16" as="geometry" />
        </mxCell>
        <mxCell id="3yhlnZ_dRqESJsOAwMpr-113" value="5V" style="rounded=0;whiteSpace=wrap;html=1;fontSize=4;" parent="3yhlnZ_dRqESJsOAwMpr-118" vertex="1">
          <mxGeometry y="64" width="16" height="16" as="geometry" />
        </mxCell>
        <mxCell id="3yhlnZ_dRqESJsOAwMpr-114" value="GND" style="rounded=0;whiteSpace=wrap;html=1;fontSize=4;" parent="3yhlnZ_dRqESJsOAwMpr-118" vertex="1">
          <mxGeometry y="80" width="16" height="16" as="geometry" />
        </mxCell>
        <mxCell id="3yhlnZ_dRqESJsOAwMpr-115" value="GND" style="rounded=0;whiteSpace=wrap;html=1;fontSize=4;" parent="3yhlnZ_dRqESJsOAwMpr-118" vertex="1">
          <mxGeometry y="96" width="16" height="16" as="geometry" />
        </mxCell>
        <mxCell id="3yhlnZ_dRqESJsOAwMpr-116" value="Vin" style="rounded=0;whiteSpace=wrap;html=1;fontSize=4;" parent="3yhlnZ_dRqESJsOAwMpr-118" vertex="1">
          <mxGeometry y="112" width="16" height="16" as="geometry" />
        </mxCell>
        <mxCell id="3yhlnZ_dRqESJsOAwMpr-120" value="" style="endArrow=none;html=1;rounded=0;entryX=0;entryY=0.5;entryDx=0;entryDy=0;" parent="1" target="3yhlnZ_dRqESJsOAwMpr-114" edge="1">
          <mxGeometry width="50" height="50" relative="1" as="geometry">
            <mxPoint x="336" y="368" as="sourcePoint" />
            <mxPoint x="146" y="212" as="targetPoint" />
            <Array as="points">
              <mxPoint x="336" y="384" />
              <mxPoint x="184" y="384" />
              <mxPoint x="184" y="224" />
            </Array>
          </mxGeometry>
        </mxCell>
        <mxCell id="3yhlnZ_dRqESJsOAwMpr-121" value="" style="endArrow=none;html=1;rounded=0;entryX=0;entryY=0.5;entryDx=0;entryDy=0;dashed=1;dashPattern=1 1;" parent="1" target="3yhlnZ_dRqESJsOAwMpr-86" edge="1">
          <mxGeometry width="50" height="50" relative="1" as="geometry">
            <mxPoint x="384" y="240" as="sourcePoint" />
            <mxPoint x="606" y="236" as="targetPoint" />
            <Array as="points">
              <mxPoint x="496" y="240" />
              <mxPoint x="496" y="256" />
            </Array>
          </mxGeometry>
        </mxCell>
        <mxCell id="3yhlnZ_dRqESJsOAwMpr-122" value="" style="endArrow=none;html=1;rounded=0;entryX=0;entryY=0.5;entryDx=0;entryDy=0;dashed=1;dashPattern=1 1;" parent="1" target="3yhlnZ_dRqESJsOAwMpr-87" edge="1">
          <mxGeometry width="50" height="50" relative="1" as="geometry">
            <mxPoint x="384" y="272" as="sourcePoint" />
            <mxPoint x="504" y="288" as="targetPoint" />
          </mxGeometry>
        </mxCell>
        <mxCell id="3yhlnZ_dRqESJsOAwMpr-123" value="" style="endArrow=none;html=1;rounded=0;entryX=0;entryY=0.5;entryDx=0;entryDy=0;dashed=1;dashPattern=1 1;" parent="1" target="3yhlnZ_dRqESJsOAwMpr-88" edge="1">
          <mxGeometry width="50" height="50" relative="1" as="geometry">
            <mxPoint x="384" y="288" as="sourcePoint" />
            <mxPoint x="504" y="304" as="targetPoint" />
          </mxGeometry>
        </mxCell>
        <mxCell id="3yhlnZ_dRqESJsOAwMpr-127" value="" style="endArrow=none;html=1;rounded=0;" parent="1" edge="1">
          <mxGeometry width="50" height="50" relative="1" as="geometry">
            <mxPoint x="384" y="192" as="sourcePoint" />
            <mxPoint x="400" y="304" as="targetPoint" />
            <Array as="points">
              <mxPoint x="400" y="192" />
            </Array>
          </mxGeometry>
        </mxCell>
        <mxCell id="3yhlnZ_dRqESJsOAwMpr-128" value="" style="endArrow=none;html=1;rounded=0;dashed=1;dashPattern=1 1;" parent="1" edge="1">
          <mxGeometry width="50" height="50" relative="1" as="geometry">
            <mxPoint x="384" y="192" as="sourcePoint" />
            <mxPoint x="384" y="208" as="targetPoint" />
          </mxGeometry>
        </mxCell>
        <mxCell id="3yhlnZ_dRqESJsOAwMpr-130" value="" style="endArrow=none;html=1;rounded=0;dashed=1;dashPattern=1 1;" parent="1" edge="1">
          <mxGeometry width="50" height="50" relative="1" as="geometry">
            <mxPoint x="400" y="304" as="sourcePoint" />
            <mxPoint x="384" y="304" as="targetPoint" />
          </mxGeometry>
        </mxCell>
        <mxCell id="3yhlnZ_dRqESJsOAwMpr-132" value="" style="group" parent="1" vertex="1" connectable="0">
          <mxGeometry x="200" y="280" width="16" height="96" as="geometry" />
        </mxCell>
        <mxCell id="3yhlnZ_dRqESJsOAwMpr-102" value="A0" style="rounded=0;whiteSpace=wrap;html=1;fontSize=4;" parent="3yhlnZ_dRqESJsOAwMpr-132" vertex="1">
          <mxGeometry width="16" height="16" as="geometry" />
        </mxCell>
        <mxCell id="3yhlnZ_dRqESJsOAwMpr-103" value="A1" style="rounded=0;whiteSpace=wrap;html=1;fontSize=4;" parent="3yhlnZ_dRqESJsOAwMpr-132" vertex="1">
          <mxGeometry y="16" width="16" height="16" as="geometry" />
        </mxCell>
        <mxCell id="3yhlnZ_dRqESJsOAwMpr-104" value="A2" style="rounded=0;whiteSpace=wrap;html=1;fontSize=4;" parent="3yhlnZ_dRqESJsOAwMpr-132" vertex="1">
          <mxGeometry y="32" width="16" height="16" as="geometry" />
        </mxCell>
        <mxCell id="3yhlnZ_dRqESJsOAwMpr-105" value="A3" style="rounded=0;whiteSpace=wrap;html=1;fontSize=4;" parent="3yhlnZ_dRqESJsOAwMpr-132" vertex="1">
          <mxGeometry y="48" width="16" height="16" as="geometry" />
        </mxCell>
        <mxCell id="3yhlnZ_dRqESJsOAwMpr-106" value="A4" style="rounded=0;whiteSpace=wrap;html=1;fontSize=4;" parent="3yhlnZ_dRqESJsOAwMpr-132" vertex="1">
          <mxGeometry y="64" width="16" height="16" as="geometry" />
        </mxCell>
        <mxCell id="3yhlnZ_dRqESJsOAwMpr-107" value="A5" style="rounded=0;whiteSpace=wrap;html=1;fontSize=4;" parent="3yhlnZ_dRqESJsOAwMpr-132" vertex="1">
          <mxGeometry y="80" width="16" height="16" as="geometry" />
        </mxCell>
        <mxCell id="3yhlnZ_dRqESJsOAwMpr-134" value="" style="endArrow=none;html=1;rounded=0;exitX=1;exitY=0.5;exitDx=0;exitDy=0;dashed=1;dashPattern=1 1;entryX=0.5;entryY=0.5;entryDx=0;entryDy=0;entryPerimeter=0;" parent="1" source="3yhlnZ_dRqESJsOAwMpr-107" target="3yhlnZ_dRqESJsOAwMpr-133" edge="1">
          <mxGeometry width="50" height="50" relative="1" as="geometry">
            <mxPoint x="404" y="374" as="sourcePoint" />
            <mxPoint x="348" y="368" as="targetPoint" />
            <Array as="points">
              <mxPoint x="272" y="368" />
            </Array>
          </mxGeometry>
        </mxCell>
        <mxCell id="3yhlnZ_dRqESJsOAwMpr-135" value="" style="endArrow=none;html=1;rounded=0;dashed=1;dashPattern=1 1;" parent="1" edge="1">
          <mxGeometry width="50" height="50" relative="1" as="geometry">
            <mxPoint x="256" y="352" as="sourcePoint" />
            <mxPoint x="256" y="288" as="targetPoint" />
          </mxGeometry>
        </mxCell>
        <mxCell id="3yhlnZ_dRqESJsOAwMpr-138" value="" style="endArrow=none;html=1;rounded=0;dashed=1;dashPattern=1 1;" parent="1" edge="1">
          <mxGeometry width="50" height="50" relative="1" as="geometry">
            <mxPoint x="256" y="320" as="sourcePoint" />
            <mxPoint x="336" y="320" as="targetPoint" />
            <Array as="points">
              <mxPoint x="292" y="320" />
            </Array>
          </mxGeometry>
        </mxCell>
        <mxCell id="3yhlnZ_dRqESJsOAwMpr-141" value="" style="endArrow=none;html=1;rounded=0;dashed=1;dashPattern=1 1;entryX=1;entryY=0.5;entryDx=0;entryDy=0;" parent="1" target="3yhlnZ_dRqESJsOAwMpr-14" edge="1">
          <mxGeometry width="50" height="50" relative="1" as="geometry">
            <mxPoint x="336" y="224" as="sourcePoint" />
            <mxPoint x="320" y="172" as="targetPoint" />
          </mxGeometry>
        </mxCell>
        <mxCell id="3yhlnZ_dRqESJsOAwMpr-142" value="" style="endArrow=none;html=1;rounded=0;entryX=0.5;entryY=0.5;entryDx=0;entryDy=0;entryPerimeter=0;" parent="1" target="3yhlnZ_dRqESJsOAwMpr-14" edge="1">
          <mxGeometry width="50" height="50" relative="1" as="geometry">
            <mxPoint x="304" y="224" as="sourcePoint" />
            <mxPoint x="370" y="236" as="targetPoint" />
          </mxGeometry>
        </mxCell>
        <mxCell id="3yhlnZ_dRqESJsOAwMpr-143" value="" style="endArrow=none;html=1;rounded=0;entryX=0.5;entryY=0.5;entryDx=0;entryDy=0;entryPerimeter=0;" parent="1" edge="1">
          <mxGeometry width="50" height="50" relative="1" as="geometry">
            <mxPoint x="303" y="240" as="sourcePoint" />
            <mxPoint x="319" y="240" as="targetPoint" />
          </mxGeometry>
        </mxCell>
        <mxCell id="3yhlnZ_dRqESJsOAwMpr-144" value="" style="endArrow=none;html=1;rounded=0;dashed=1;dashPattern=1 1;" parent="1" edge="1">
          <mxGeometry width="50" height="50" relative="1" as="geometry">
            <mxPoint x="304" y="240" as="sourcePoint" />
            <mxPoint x="224" y="192" as="targetPoint" />
            <Array as="points">
              <mxPoint x="224" y="240" />
            </Array>
          </mxGeometry>
        </mxCell>
        <mxCell id="3yhlnZ_dRqESJsOAwMpr-145" value="" style="ellipse;whiteSpace=wrap;html=1;aspect=fixed;" parent="1" vertex="1">
          <mxGeometry x="314" y="250" width="12" height="12" as="geometry" />
        </mxCell>
        <mxCell id="3yhlnZ_dRqESJsOAwMpr-146" value="" style="endArrow=none;html=1;rounded=0;entryX=0.5;entryY=0.5;entryDx=0;entryDy=0;entryPerimeter=0;" parent="1" edge="1">
          <mxGeometry width="50" height="50" relative="1" as="geometry">
            <mxPoint x="304" y="256" as="sourcePoint" />
            <mxPoint x="320" y="256" as="targetPoint" />
          </mxGeometry>
        </mxCell>
        <mxCell id="3yhlnZ_dRqESJsOAwMpr-147" value="" style="ellipse;whiteSpace=wrap;html=1;aspect=fixed;" parent="1" vertex="1">
          <mxGeometry x="314" y="266" width="12" height="12" as="geometry" />
        </mxCell>
        <mxCell id="3yhlnZ_dRqESJsOAwMpr-148" value="" style="endArrow=none;html=1;rounded=0;entryX=0.5;entryY=0.5;entryDx=0;entryDy=0;entryPerimeter=0;" parent="1" edge="1">
          <mxGeometry width="50" height="50" relative="1" as="geometry">
            <mxPoint x="304" y="272" as="sourcePoint" />
            <mxPoint x="320" y="272" as="targetPoint" />
          </mxGeometry>
        </mxCell>
        <mxCell id="3yhlnZ_dRqESJsOAwMpr-149" value="" style="endArrow=none;html=1;rounded=0;entryX=0.5;entryY=0.5;entryDx=0;entryDy=0;entryPerimeter=0;" parent="1" edge="1">
          <mxGeometry width="50" height="50" relative="1" as="geometry">
            <mxPoint x="304" y="288" as="sourcePoint" />
            <mxPoint x="320" y="288" as="targetPoint" />
          </mxGeometry>
        </mxCell>
        <mxCell id="3yhlnZ_dRqESJsOAwMpr-150" value="" style="endArrow=none;html=1;rounded=0;entryX=0.5;entryY=0.5;entryDx=0;entryDy=0;entryPerimeter=0;" parent="1" edge="1">
          <mxGeometry width="50" height="50" relative="1" as="geometry">
            <mxPoint x="304" y="208" as="sourcePoint" />
            <mxPoint x="320" y="208" as="targetPoint" />
          </mxGeometry>
        </mxCell>
        <mxCell id="3yhlnZ_dRqESJsOAwMpr-151" value="" style="endArrow=none;html=1;rounded=0;entryX=0.5;entryY=0.5;entryDx=0;entryDy=0;entryPerimeter=0;" parent="1" edge="1">
          <mxGeometry width="50" height="50" relative="1" as="geometry">
            <mxPoint x="304" y="304" as="sourcePoint" />
            <mxPoint x="320" y="304" as="targetPoint" />
          </mxGeometry>
        </mxCell>
        <mxCell id="3yhlnZ_dRqESJsOAwMpr-152" value="" style="endArrow=none;html=1;rounded=0;entryX=0.5;entryY=0.5;entryDx=0;entryDy=0;entryPerimeter=0;" parent="1" edge="1">
          <mxGeometry width="50" height="50" relative="1" as="geometry">
            <mxPoint x="304" y="176" as="sourcePoint" />
            <mxPoint x="320" y="176" as="targetPoint" />
          </mxGeometry>
        </mxCell>
        <mxCell id="3yhlnZ_dRqESJsOAwMpr-154" value="L" style="rounded=0;whiteSpace=wrap;html=1;" parent="1" vertex="1">
          <mxGeometry x="344.1" y="344" width="32" height="16" as="geometry" />
        </mxCell>
        <mxCell id="3yhlnZ_dRqESJsOAwMpr-155" value="L" style="rounded=0;whiteSpace=wrap;html=1;" parent="1" vertex="1">
          <mxGeometry x="344.1" y="360" width="32" height="16" as="geometry" />
        </mxCell>
        <mxCell id="3yhlnZ_dRqESJsOAwMpr-156" value="" style="endArrow=none;html=1;rounded=0;dashed=1;dashPattern=1 1;" parent="1" edge="1">
          <mxGeometry width="50" height="50" relative="1" as="geometry">
            <mxPoint x="336" y="352" as="sourcePoint" />
            <mxPoint x="336" y="320" as="targetPoint" />
          </mxGeometry>
        </mxCell>
        <mxCell id="3yhlnZ_dRqESJsOAwMpr-159" value="" style="endArrow=none;html=1;rounded=0;dashed=1;dashPattern=1 1;entryX=0;entryY=0.5;entryDx=0;entryDy=0;exitX=0.747;exitY=0.5;exitDx=0;exitDy=0;exitPerimeter=0;" parent="1" source="3yhlnZ_dRqESJsOAwMpr-155" target="3yhlnZ_dRqESJsOAwMpr-91" edge="1">
          <mxGeometry width="50" height="50" relative="1" as="geometry">
            <mxPoint x="400" y="368" as="sourcePoint" />
            <mxPoint x="456" y="324" as="targetPoint" />
            <Array as="points">
              <mxPoint x="496" y="368" />
              <mxPoint x="496" y="336" />
            </Array>
          </mxGeometry>
        </mxCell>
        <mxCell id="3yhlnZ_dRqESJsOAwMpr-162" value="" style="endArrow=none;html=1;rounded=0;dashed=1;dashPattern=1 1;entryX=0;entryY=0.5;entryDx=0;entryDy=0;exitX=0.747;exitY=0.5;exitDx=0;exitDy=0;exitPerimeter=0;" parent="1" source="3yhlnZ_dRqESJsOAwMpr-154" edge="1">
          <mxGeometry width="50" height="50" relative="1" as="geometry">
            <mxPoint x="400" y="352" as="sourcePoint" />
            <mxPoint x="504" y="320" as="targetPoint" />
            <Array as="points">
              <mxPoint x="480" y="352" />
              <mxPoint x="480" y="320" />
            </Array>
          </mxGeometry>
        </mxCell>
        <mxCell id="3yhlnZ_dRqESJsOAwMpr-163" value="" style="endArrow=none;html=1;rounded=0;dashed=1;dashPattern=1 1;" parent="1" edge="1">
          <mxGeometry width="50" height="50" relative="1" as="geometry">
            <mxPoint x="336" y="336" as="sourcePoint" />
            <mxPoint x="400" y="336" as="targetPoint" />
          </mxGeometry>
        </mxCell>
        <mxCell id="3yhlnZ_dRqESJsOAwMpr-166" value="" style="endArrow=none;html=1;rounded=0;dashed=1;dashPattern=1 1;entryX=0;entryY=0.5;entryDx=0;entryDy=0;" parent="1" target="3yhlnZ_dRqESJsOAwMpr-89" edge="1">
          <mxGeometry width="50" height="50" relative="1" as="geometry">
            <mxPoint x="416" y="335.88" as="sourcePoint" />
            <mxPoint x="464" y="304" as="targetPoint" />
            <Array as="points">
              <mxPoint x="464" y="336" />
              <mxPoint x="464" y="304" />
            </Array>
          </mxGeometry>
        </mxCell>
        <mxCell id="3yhlnZ_dRqESJsOAwMpr-167" value="" style="endArrow=none;html=1;rounded=0;dashed=1;dashPattern=1 1;" parent="1" edge="1">
          <mxGeometry width="50" height="50" relative="1" as="geometry">
            <mxPoint x="336" y="368" as="sourcePoint" />
            <mxPoint x="336" y="352" as="targetPoint" />
          </mxGeometry>
        </mxCell>
        <mxCell id="3yhlnZ_dRqESJsOAwMpr-168" value="" style="endArrow=none;html=1;rounded=0;dashed=1;dashPattern=1 1;entryX=0.247;entryY=0.5;entryDx=0;entryDy=0;entryPerimeter=0;" parent="1" target="3yhlnZ_dRqESJsOAwMpr-154" edge="1">
          <mxGeometry width="50" height="50" relative="1" as="geometry">
            <mxPoint x="336" y="352" as="sourcePoint" />
            <mxPoint x="406" y="384" as="targetPoint" />
          </mxGeometry>
        </mxCell>
        <mxCell id="3yhlnZ_dRqESJsOAwMpr-169" value="" style="endArrow=none;html=1;rounded=0;dashed=1;dashPattern=1 1;entryX=0.247;entryY=0.5;entryDx=0;entryDy=0;entryPerimeter=0;" parent="1" edge="1">
          <mxGeometry width="50" height="50" relative="1" as="geometry">
            <mxPoint x="336" y="368" as="sourcePoint" />
            <mxPoint x="352" y="368" as="targetPoint" />
          </mxGeometry>
        </mxCell>
        <mxCell id="gKx0LK1i2x4RyqhHTaVY-1" value="" style="curved=1;endArrow=classic;html=1;rounded=0;entryX=0.833;entryY=0.5;entryDx=0;entryDy=0;entryPerimeter=0;" edge="1" parent="1" target="3yhlnZ_dRqESJsOAwMpr-133">
          <mxGeometry width="50" height="50" relative="1" as="geometry">
            <mxPoint x="184" y="208" as="sourcePoint" />
            <mxPoint x="316" y="356" as="targetPoint" />
            <Array as="points">
              <mxPoint x="162" y="230" />
              <mxPoint x="140" y="92" />
              <mxPoint x="352" y="160" />
            </Array>
          </mxGeometry>
        </mxCell>
      </root>
    </mxGraphModel>
  </diagram>
</mxfile>
